<?xml version="1.0" encoding="utf-8"?>
<!-- Generator: Adobe Illustrator 17.0.0, SVG Export Plug-In . SVG Version: 6.00 Build 0)  -->
<!DOCTYPE svg PUBLIC "-//W3C//DTD SVG 1.1//EN" "http://www.w3.org/Graphics/SVG/1.1/DTD/svg11.dtd">
<svg version="1.1" id="Layer_1" xmlns="http://www.w3.org/2000/svg" xmlns:xlink="http://www.w3.org/1999/xlink" x="0px" y="0px"
	 width="156.25px" height="40.25px" viewBox="1.5 3.5 156.25 40.25" enable-background="new 1.5 3.5 156.25 40.25"
	 xml:space="preserve">
<g enable-background="new    ">
	<path fill="#EC008C" d="M19.224,17.184v4.561h-4.992v12.288c0,1.151,0.192,1.92,0.576,2.304c0.384,0.384,1.152,0.576,2.304,0.576
		c0.384,0,0.751-0.016,1.104-0.048c0.352-0.032,0.688-0.08,1.008-0.145V42c-0.576,0.096-1.217,0.16-1.92,0.192
		c-0.705,0.031-1.392,0.048-2.064,0.048c-1.056,0-2.057-0.072-3-0.216c-0.944-0.145-1.776-0.424-2.496-0.841
		c-0.72-0.415-1.289-1.008-1.704-1.775c-0.417-0.769-0.624-1.776-0.624-3.024v-14.64H3.288v-4.561h4.128V9.744h6.816v7.439H19.224z"
		/>
	<path fill="#EC008C" d="M26.184,24.816c0.096-1.601,0.496-2.929,1.2-3.984c0.704-1.056,1.6-1.903,2.688-2.544
		c1.087-0.64,2.312-1.096,3.672-1.368c1.36-0.271,2.728-0.408,4.104-0.408c1.248,0,2.512,0.089,3.792,0.265s2.448,0.521,3.504,1.031
		c1.056,0.513,1.92,1.225,2.592,2.137s1.008,2.12,1.008,3.624V36.48c0,1.12,0.064,2.191,0.192,3.216
		c0.127,1.024,0.352,1.792,0.672,2.304h-6.912c-0.128-0.384-0.232-0.775-0.312-1.176c-0.08-0.4-0.136-0.808-0.168-1.225
		c-1.088,1.121-2.369,1.904-3.84,2.353c-1.472,0.447-2.976,0.672-4.512,0.672c-1.184,0-2.288-0.144-3.312-0.432
		c-1.024-0.288-1.92-0.736-2.688-1.345c-0.768-0.607-1.368-1.375-1.8-2.304c-0.432-0.928-0.648-2.031-0.648-3.312
		c0-1.408,0.248-2.568,0.744-3.48s1.136-1.64,1.92-2.184c0.784-0.544,1.68-0.952,2.688-1.225c1.008-0.271,2.023-0.487,3.048-0.647
		c1.024-0.16,2.032-0.288,3.024-0.385c0.992-0.096,1.872-0.239,2.64-0.432c0.768-0.191,1.375-0.472,1.824-0.84
		c0.448-0.367,0.656-0.903,0.624-1.608c0-0.735-0.12-1.319-0.36-1.752c-0.24-0.432-0.56-0.768-0.96-1.008
		c-0.4-0.24-0.864-0.399-1.392-0.479s-1.097-0.12-1.704-0.12c-1.344,0-2.4,0.288-3.168,0.863c-0.768,0.576-1.216,1.536-1.344,2.881
		H26.184z M41.927,29.856c-0.288,0.256-0.648,0.455-1.08,0.6c-0.432,0.144-0.896,0.264-1.392,0.36
		c-0.497,0.096-1.017,0.176-1.56,0.239c-0.544,0.064-1.088,0.145-1.632,0.24c-0.512,0.096-1.016,0.225-1.512,0.384
		c-0.497,0.161-0.929,0.377-1.296,0.648c-0.369,0.272-0.665,0.616-0.888,1.032c-0.224,0.416-0.336,0.944-0.336,1.584
		c0,0.608,0.112,1.12,0.336,1.536c0.224,0.416,0.528,0.743,0.912,0.983c0.384,0.24,0.832,0.408,1.344,0.504
		c0.512,0.097,1.04,0.145,1.584,0.145c1.344,0,2.384-0.224,3.12-0.672c0.736-0.448,1.28-0.984,1.632-1.608s0.568-1.256,0.648-1.896
		c0.079-0.64,0.12-1.151,0.12-1.535V29.856z"/>
	<path fill="#EC008C" d="M64.823,7.728v12.48h0.096c0.832-1.279,1.96-2.216,3.384-2.808c1.423-0.592,2.904-0.889,4.44-0.889
		c1.248,0,2.479,0.257,3.696,0.769c1.216,0.512,2.312,1.296,3.288,2.352c0.976,1.057,1.767,2.408,2.376,4.057
		c0.607,1.648,0.912,3.607,0.912,5.88s-0.305,4.231-0.912,5.88c-0.609,1.648-1.4,3-2.376,4.056
		c-0.977,1.056-2.072,1.841-3.288,2.353c-1.216,0.511-2.448,0.768-3.696,0.768c-1.824,0-3.456-0.288-4.896-0.864
		s-2.528-1.552-3.264-2.928h-0.096V42h-6.48V7.728H64.823z M75.863,26.592c-0.225-0.96-0.576-1.808-1.056-2.544
		c-0.48-0.735-1.08-1.32-1.8-1.752c-0.72-0.432-1.592-0.647-2.616-0.647c-0.992,0-1.856,0.216-2.592,0.647
		c-0.736,0.432-1.344,1.017-1.824,1.752c-0.48,0.736-0.833,1.584-1.056,2.544c-0.224,0.96-0.336,1.968-0.336,3.024
		c0,1.024,0.112,2.016,0.336,2.976c0.224,0.96,0.576,1.809,1.056,2.544c0.48,0.736,1.087,1.32,1.824,1.752
		c0.736,0.433,1.6,0.648,2.592,0.648c1.023,0,1.896-0.216,2.616-0.648c0.72-0.432,1.32-1.016,1.8-1.752
		c0.48-0.735,0.832-1.584,1.056-2.544c0.223-0.96,0.336-1.951,0.336-2.976C76.199,28.56,76.086,27.552,75.863,26.592z"/>
	<path fill="#EC008C" d="M98.326,7.728V42h-6.815V7.728H98.326z"/>
	<path fill="#EC008C" d="M124.486,42v-3.456h-0.145c-0.863,1.44-1.984,2.48-3.359,3.12c-1.377,0.64-2.784,0.96-4.225,0.96
		c-1.824,0-3.32-0.24-4.488-0.72c-1.168-0.48-2.088-1.16-2.76-2.04s-1.145-1.952-1.416-3.216c-0.271-1.265-0.408-2.664-0.408-4.2
		V17.184h6.816V31.2c0,2.048,0.32,3.576,0.961,4.584c0.639,1.008,1.775,1.512,3.407,1.512c1.855,0,3.2-0.552,4.032-1.656
		c0.832-1.104,1.248-2.919,1.248-5.447V17.184h6.816V42H124.486z"/>
	<path fill="#EC008C" d="M146.613,17.184v4.608h0.097c0.319-0.768,0.751-1.479,1.296-2.136c0.544-0.655,1.168-1.216,1.872-1.681
		c0.704-0.463,1.456-0.823,2.256-1.079s1.632-0.385,2.496-0.385c0.448,0,0.944,0.08,1.488,0.24v6.336
		c-0.32-0.063-0.704-0.12-1.152-0.168s-0.88-0.072-1.296-0.072c-1.248,0-2.304,0.209-3.168,0.624
		c-0.863,0.417-1.561,0.984-2.088,1.704c-0.527,0.721-0.904,1.561-1.128,2.521c-0.225,0.96-0.336,2-0.336,3.12V42h-6.816V17.184
		H146.613z"/>
</g>
<rect x="28" y="5" fill="#2E3192" width="20" height="6"/>
</svg>
